<svg width="36" height="33" viewBox="0 0 36 33" fill="none" xmlns="http://www.w3.org/2000/svg">
<path d="M3.52087 13.6221C19.0209 5.53733 9.02087 10.6088 19.0209 5.03733C28.0209 4.03733 17.0209 23.5373 32.0209 13.6936C27.1132 22.5553 31.2055 32.0037 12.0209 31.5373C12.0209 24.5413 20.4209 23.4881 12.3901 17.8912C5.96548 13.4137 3.96702 13.1557 3.52087 13.6221Z" stroke="#DEDEDE"/>
<path d="M24.4041 5.80387C15.5849 3.11648 21.6433 5.18935 3.84683 13.5432C4.49734 17.6723 6.25058 26.5017 8.94911 30C12.3223 34.3728 16.2248 27.8267 16.0209 23.5C15.7983 18.7793 23.6315 22.2934 29.0019 17.6934C34.3722 13.0934 33.2233 8.49125 24.4041 5.80387Z" stroke="#DEDEDE"/>
</svg>
